<?xml version="1.0" encoding="UTF-8"?>
<!DOCTYPE svg PUBLIC "-//W3C//DTD SVG 1.1//EN" "http://www.w3.org/Graphics/SVG/1.1/DTD/svg11.dtd">
<svg xmlns="http://www.w3.org/2000/svg" version="1.1" width="500px" height="500px" style="shape-rendering:geometricPrecision; text-rendering:geometricPrecision; image-rendering:optimizeQuality; fill-rule:evenodd; clip-rule:evenodd" xmlns:xlink="http://www.w3.org/1999/xlink">
<g><path style="opacity:0.995" fill="#c9febd" d="M 233.5,99.5 C 297.218,96.106 346.051,121.106 380,174.5C 402.953,217.937 405.62,262.604 388,308.5C 363.657,360.826 322.823,390.992 265.5,399C 201.758,402.881 152.925,378.048 119,324.5C 96.0161,281.068 93.3494,236.401 111,190.5C 135.503,138.162 176.336,107.828 233.5,99.5 Z"/></g>
<g><path style="opacity:1" fill="#090c09" d="M 209.5,199.5 C 209.833,215.181 209.499,230.848 208.5,246.5C 207.817,246.863 207.15,247.196 206.5,247.5C 204.983,247.489 203.816,246.823 203,245.5C 202.5,239.175 202.334,232.842 202.5,226.5C 200.603,225.195 198.269,224.529 195.5,224.5C 193.167,224.667 190.833,224.833 188.5,225C 185.733,236.955 178.399,241.788 166.5,239.5C 162.847,238.011 160.347,235.344 159,231.5C 156.224,215.628 162.724,207.795 178.5,208C 180.692,208.926 182.692,210.093 184.5,211.5C 185.957,213.628 186.957,215.962 187.5,218.5C 190.059,218.802 192.393,218.468 194.5,217.5C 197.167,217.5 199.833,217.5 202.5,217.5C 202.334,211.158 202.5,204.825 203,198.5C 205.552,196.98 207.718,197.313 209.5,199.5 Z"/></g>
<g><path style="opacity:1" fill="#0c0f0b" d="M 273.5,199.5 C 274.636,215.122 274.802,230.789 274,246.5C 273.005,247.066 272.172,247.733 271.5,248.5C 269.62,248.771 268.287,248.104 267.5,246.5C 267.5,239.5 267.5,232.5 267.5,225.5C 265.167,225.5 262.833,225.5 260.5,225.5C 259.391,225.443 258.391,225.11 257.5,224.5C 256.248,222.661 256.248,220.828 257.5,219C 260.817,218.502 264.15,218.335 267.5,218.5C 267.5,212.167 267.5,205.833 267.5,199.5C 269.5,198.167 271.5,198.167 273.5,199.5 Z"/></g>
<g><path style="opacity:1" fill="#080a07" d="M 326.5,201.5 C 326.5,206.833 326.5,212.167 326.5,217.5C 327.5,217.5 328.5,217.5 329.5,217.5C 332.518,217.335 335.518,217.502 338.5,218C 339.942,218.377 340.942,219.21 341.5,220.5C 341.67,221.822 341.337,222.989 340.5,224C 336.179,224.499 331.846,224.666 327.5,224.5C 328.568,231.507 328.568,238.507 327.5,245.5C 326.264,246.246 324.93,246.579 323.5,246.5C 322.833,246.5 322.5,246.167 322.5,245.5C 322.208,235.826 321.708,226.159 321,216.5C 320.768,215.263 320.268,214.263 319.5,213.5C 319.5,208.833 319.5,204.167 319.5,199.5C 322.188,199.166 324.521,199.832 326.5,201.5 Z"/></g>
<g><path style="opacity:1" fill="#779770" d="M 273.5,199.5 C 274.721,200.028 275.887,200.695 277,201.5C 277.667,217.5 277.667,233.5 277,249.5C 274.765,250.98 272.932,250.647 271.5,248.5C 272.172,247.733 273.005,247.066 274,246.5C 274.802,230.789 274.636,215.122 273.5,199.5 Z"/></g>
<g><path style="opacity:1" fill="#7a9b73" d="M 209.5,199.5 C 211.017,199.511 212.184,200.177 213,201.5C 213.183,204.365 213.683,207.031 214.5,209.5C 214.5,211.167 214.5,212.833 214.5,214.5C 213.67,225.326 213.17,236.326 213,247.5C 210.707,250.134 208.54,250.134 206.5,247.5C 207.15,247.196 207.817,246.863 208.5,246.5C 209.499,230.848 209.833,215.181 209.5,199.5 Z"/></g>
<g><path style="opacity:1" fill="#080a07" d="M 256.5,208.5 C 257.391,214.378 255.724,219.378 251.5,223.5C 252.188,224.855 253.188,225.855 254.5,226.5C 256.806,228.139 258.806,230.139 260.5,232.5C 260.616,235.91 258.95,237.244 255.5,236.5C 253.5,235.167 251.5,233.833 249.5,232.5C 248.855,231.188 247.855,230.188 246.5,229.5C 243.349,232.15 240.349,234.984 237.5,238C 236.552,238.483 235.552,238.649 234.5,238.5C 231.932,236.331 231.932,233.998 234.5,231.5C 234.376,230.893 234.043,230.56 233.5,230.5C 232.809,228.978 231.642,227.978 230,227.5C 226.846,229.321 224.346,231.821 222.5,235C 221.207,235.49 219.873,235.657 218.5,235.5C 216.623,234.341 216.123,232.674 217,230.5C 221.295,225.524 225.795,220.858 230.5,216.5C 232.104,215.713 232.771,214.38 232.5,212.5C 227.251,212.397 222.251,213.397 217.5,215.5C 216.391,215.443 215.391,215.11 214.5,214.5C 214.5,212.833 214.5,211.167 214.5,209.5C 222.339,205.52 230.339,204.853 238.5,207.5C 244.813,204.521 250.813,204.854 256.5,208.5 Z"/></g>
<g><path style="opacity:1" fill="#0b0e0a" d="M 309.5,207.5 C 309.67,208.822 309.337,209.989 308.5,211C 302.552,212.255 296.552,213.088 290.5,213.5C 290.5,219.5 290.5,225.5 290.5,231.5C 292.735,231.795 294.735,231.461 296.5,230.5C 301.098,230.025 305.598,229.025 310,227.5C 311.459,227.808 312.626,228.475 313.5,229.5C 313.714,231.144 313.38,232.644 312.5,234C 304.356,236.568 296.022,238.068 287.5,238.5C 285.983,238.489 284.816,237.823 284,236.5C 283.333,227.833 283.333,219.167 284,210.5C 284.833,209.667 285.667,208.833 286.5,208C 293.711,205.899 301.045,205.232 308.5,206C 309.056,206.383 309.389,206.883 309.5,207.5 Z"/></g>
<g><path style="opacity:1" fill="#708d69" d="M 309.5,207.5 C 312.966,208.109 313.966,209.942 312.5,213C 306.539,214.162 300.539,214.995 294.5,215.5C 293.892,220.944 294.558,225.944 296.5,230.5C 294.735,231.461 292.735,231.795 290.5,231.5C 290.5,225.5 290.5,219.5 290.5,213.5C 296.552,213.088 302.552,212.255 308.5,211C 309.337,209.989 309.67,208.822 309.5,207.5 Z"/></g>
<g><path style="opacity:1" fill="#6f8d69" d="M 230.5,216.5 C 230.631,215.624 230.298,214.957 229.5,214.5C 226.316,215.422 223.149,216.422 220,217.5C 218.699,217.361 217.866,216.695 217.5,215.5C 222.251,213.397 227.251,212.397 232.5,212.5C 232.771,214.38 232.104,215.713 230.5,216.5 Z"/></g>
<g><path style="opacity:1" fill="#6e8b67" d="M 248.5,215.5 C 248.44,214.957 248.107,214.624 247.5,214.5C 245.775,215.015 244.108,215.682 242.5,216.5C 241.547,219.426 240.213,222.093 238.5,224.5C 237.027,223.928 235.693,223.095 234.5,222C 236.894,220.048 238.394,217.548 239,214.5C 242.285,212.863 245.785,212.196 249.5,212.5C 249.737,213.791 249.404,214.791 248.5,215.5 Z"/></g>
<g><path style="opacity:1" fill="#779770" d="M 326.5,201.5 C 327.496,201.414 328.329,201.748 329,202.5C 329.499,207.489 329.666,212.489 329.5,217.5C 328.5,217.5 327.5,217.5 326.5,217.5C 326.5,212.167 326.5,206.833 326.5,201.5 Z"/></g>
<g><path style="opacity:1" fill="#566c51" d="M 184.5,211.5 C 186.479,212.812 188.145,214.479 189.5,216.5C 191.045,217.452 192.712,217.785 194.5,217.5C 192.393,218.468 190.059,218.802 187.5,218.5C 186.957,215.962 185.957,213.628 184.5,211.5 Z"/></g>
<g><path style="opacity:1" fill="#c1f4b6" d="M 178.5,216.5 C 181.332,218.407 182.166,221.073 181,224.5C 180.424,228.566 178.257,231.233 174.5,232.5C 172.833,232.5 171.167,232.5 169.5,232.5C 169.133,228.033 169.633,223.7 171,219.5C 172.848,216.959 175.348,215.959 178.5,216.5 Z"/></g>
<g><path style="opacity:1" fill="#aad7a0" d="M 248.5,215.5 C 246.42,219.086 243.754,222.253 240.5,225C 239.563,225.692 238.897,225.525 238.5,224.5C 240.213,222.093 241.547,219.426 242.5,216.5C 244.108,215.682 245.775,215.015 247.5,214.5C 248.107,214.624 248.44,214.957 248.5,215.5 Z"/></g>
<g><path style="opacity:1" fill="#6b8865" d="M 267.5,199.5 C 267.5,205.833 267.5,212.167 267.5,218.5C 264.15,218.335 260.817,218.502 257.5,219C 256.248,220.828 256.248,222.661 257.5,224.5C 255.973,224.427 254.973,225.094 254.5,226.5C 253.188,225.855 252.188,224.855 251.5,223.5C 255.724,219.378 257.391,214.378 256.5,208.5C 257.458,208.953 258.292,209.619 259,210.5C 259.497,212.81 259.663,215.143 259.5,217.5C 261.833,217.5 264.167,217.5 266.5,217.5C 266.177,211.31 266.51,205.31 267.5,199.5 Z"/></g>
<g><path style="opacity:1" fill="#273124" d="M 319.5,213.5 C 320.268,214.263 320.768,215.263 321,216.5C 321.708,226.159 322.208,235.826 322.5,245.5C 320.959,235.029 319.959,224.362 319.5,213.5 Z"/></g>
<g><path style="opacity:1" fill="#7d9e76" d="M 178.5,216.5 C 175.348,215.959 172.848,216.959 171,219.5C 169.633,223.7 169.133,228.033 169.5,232.5C 171.167,232.5 172.833,232.5 174.5,232.5C 171.248,234.147 168.414,233.48 166,230.5C 164.289,224.306 165.789,219.14 170.5,215C 172.833,214.333 175.167,214.333 177.5,215C 178.056,215.383 178.389,215.883 178.5,216.5 Z"/></g>
<g><path style="opacity:1" fill="#708e69" d="M 233.5,230.5 C 230.437,232.051 227.771,234.218 225.5,237C 222.788,237.826 220.455,237.326 218.5,235.5C 219.873,235.657 221.207,235.49 222.5,235C 224.346,231.821 226.846,229.321 230,227.5C 231.642,227.978 232.809,228.978 233.5,230.5 Z"/></g>
<g><path style="opacity:1" fill="#7d9d75" d="M 260.5,225.5 C 262.833,225.5 265.167,225.5 267.5,225.5C 267.5,232.5 267.5,239.5 267.5,246.5C 266.51,240.355 266.177,234.022 266.5,227.5C 263.99,227.946 261.99,227.28 260.5,225.5 Z"/></g>
<g><path style="opacity:1" fill="#72906b" d="M 249.5,232.5 C 246.703,234.795 244.036,237.295 241.5,240C 238.788,240.826 236.455,240.326 234.5,238.5C 235.552,238.649 236.552,238.483 237.5,238C 240.349,234.984 243.349,232.15 246.5,229.5C 247.855,230.188 248.855,231.188 249.5,232.5 Z"/></g>
<g><path style="opacity:1" fill="#708e69" d="M 313.5,229.5 C 314.708,230.234 316.041,230.567 317.5,230.5C 318.363,234.162 317.03,236.328 313.5,237C 305.3,239.315 296.967,240.315 288.5,240C 287.944,239.617 287.611,239.117 287.5,238.5C 296.022,238.068 304.356,236.568 312.5,234C 313.38,232.644 313.714,231.144 313.5,229.5 Z"/></g>
<g><path style="opacity:1" fill="#76956f" d="M 202.5,226.5 C 198.833,226.5 195.167,226.5 191.5,226.5C 188.692,239.743 180.692,244.576 167.5,241C 166.944,240.617 166.611,240.117 166.5,239.5C 178.399,241.788 185.733,236.955 188.5,225C 190.833,224.833 193.167,224.667 195.5,224.5C 198.269,224.529 200.603,225.195 202.5,226.5 Z"/></g>
<g><path style="opacity:1" fill="#7c9d75" d="M 260.5,232.5 C 261.496,232.414 262.329,232.748 263,233.5C 263.158,240.266 260.658,241.266 255.5,236.5C 258.95,237.244 260.616,235.91 260.5,232.5 Z"/></g>
<g><path style="opacity:1" fill="#7fa178" d="M 341.5,220.5 C 345.919,221.323 346.586,223.49 343.5,227C 339.514,227.499 335.514,227.666 331.5,227.5C 332.165,234.48 332.498,241.48 332.5,248.5C 329.171,248.785 326.171,248.118 323.5,246.5C 324.93,246.579 326.264,246.246 327.5,245.5C 328.568,238.507 328.568,231.507 327.5,224.5C 331.846,224.666 336.179,224.499 340.5,224C 341.337,222.989 341.67,221.822 341.5,220.5 Z"/></g>
<g><path style="opacity:1" fill="#0a0d09" d="M 301.5,265.5 C 302.589,272.117 302.756,278.783 302,285.5C 300.301,286.406 298.467,286.739 296.5,286.5C 296.167,285.833 295.833,285.167 295.5,284.5C 295.666,279.489 295.499,274.489 295,269.5C 290.901,268.576 286.735,268.576 282.5,269.5C 282.666,275.176 282.499,280.843 282,286.5C 280.644,287.38 279.144,287.714 277.5,287.5C 276.833,287.167 276.167,286.833 275.5,286.5C 275.807,280.907 275.473,275.407 274.5,270C 268.864,270.423 263.197,270.923 257.5,271.5C 256.193,269.777 256.193,267.943 257.5,266C 260.377,264.873 263.377,264.206 266.5,264C 275.226,263.746 283.893,262.913 292.5,261.5C 296.174,261.507 299.174,262.84 301.5,265.5 Z"/></g>
<g><path style="opacity:1" fill="#090c09" d="M 232.5,269.5 C 233.292,275.26 231.958,280.427 228.5,285C 228.978,286.642 229.978,287.809 231.5,288.5C 233.167,289.833 234.833,291.167 236.5,292.5C 236.741,294.886 236.075,296.886 234.5,298.5C 231.697,298.039 229.363,296.705 227.5,294.5C 226.166,293.348 224.666,292.348 223,291.5C 219.882,293.615 217.048,296.115 214.5,299C 213.207,299.49 211.873,299.657 210.5,299.5C 209.305,299.134 208.639,298.301 208.5,297C 209.289,295.374 210.289,293.874 211.5,292.5C 211.043,291.702 210.376,291.369 209.5,291.5C 208.855,290.188 207.855,289.188 206.5,288.5C 203.683,290.817 201.016,293.317 198.5,296C 197.207,296.49 195.873,296.657 194.5,296.5C 192.623,295.341 192.123,293.674 193,291.5C 198.037,286.631 202.87,281.631 207.5,276.5C 208.404,275.791 208.737,274.791 208.5,273.5C 203.606,273.558 198.939,274.558 194.5,276.5C 190.929,276.592 189.762,274.926 191,271.5C 198.738,266.848 206.905,265.848 215.5,268.5C 221.456,265.536 227.123,265.87 232.5,269.5 Z"/></g>
<g><path style="opacity:1" fill="#72916c" d="M 275.5,286.5 C 274.514,282.03 274.181,277.363 274.5,272.5C 270.973,272.504 267.473,272.837 264,273.5C 261.516,273.503 259.349,272.837 257.5,271.5C 263.197,270.923 268.864,270.423 274.5,270C 275.473,275.407 275.807,280.907 275.5,286.5 Z"/></g>
<g><path style="opacity:1" fill="#799972" d="M 246.5,268.5 C 247.496,268.414 248.329,268.748 249,269.5C 249.499,273.486 249.666,277.486 249.5,281.5C 252.059,281.198 254.393,281.532 256.5,282.5C 253.167,282.5 249.833,282.5 246.5,282.5C 246.5,277.833 246.5,273.167 246.5,268.5 Z"/></g>
<g><path style="opacity:1" fill="#c6faba" d="M 295.5,284.5 C 295.833,285.167 296.167,285.833 296.5,286.5C 296.5,286.833 296.5,287.167 296.5,287.5C 294.833,287.5 293.167,287.5 291.5,287.5C 289.833,287.5 288.167,287.5 286.5,287.5C 286.5,282.5 286.5,277.5 286.5,272.5C 289.004,271.361 291.67,270.694 294.5,270.5C 294.181,275.363 294.514,280.03 295.5,284.5 Z"/></g>
<g><path style="opacity:1" fill="#718f6b" d="M 301.5,265.5 C 302.482,266.141 303.482,266.807 304.5,267.5C 305.497,274.468 305.83,281.468 305.5,288.5C 302.609,287.597 299.609,287.264 296.5,287.5C 296.5,287.167 296.5,286.833 296.5,286.5C 298.467,286.739 300.301,286.406 302,285.5C 302.756,278.783 302.589,272.117 301.5,265.5 Z"/></g>
<g><path style="opacity:1" fill="#708d69" d="M 207.5,276.5 C 207.44,275.957 207.107,275.624 206.5,275.5C 203.316,276.422 200.149,277.422 197,278.5C 195.699,278.361 194.866,277.695 194.5,276.5C 198.939,274.558 203.606,273.558 208.5,273.5C 208.737,274.791 208.404,275.791 207.5,276.5 Z"/></g>
<g><path style="opacity:1" fill="#718f6a" d="M 224.5,277.5 C 223.081,276.549 221.415,276.216 219.5,276.5C 219.109,280.221 217.442,283.221 214.5,285.5C 213.373,284.878 212.373,284.045 211.5,283C 213.377,280.749 214.877,278.249 216,275.5C 218.997,274.134 222.164,273.467 225.5,273.5C 225.768,275.099 225.434,276.432 224.5,277.5 Z"/></g>
<g><path style="opacity:1" fill="#718e6a" d="M 295.5,284.5 C 294.514,280.03 294.181,275.363 294.5,270.5C 291.67,270.694 289.004,271.361 286.5,272.5C 286.5,277.5 286.5,282.5 286.5,287.5C 288.167,287.5 289.833,287.5 291.5,287.5C 284.354,288.616 277.02,289.283 269.5,289.5C 272.167,288.833 274.833,288.167 277.5,287.5C 279.144,287.714 280.644,287.38 282,286.5C 282.499,280.843 282.666,275.176 282.5,269.5C 286.735,268.576 290.901,268.576 295,269.5C 295.499,274.489 295.666,279.489 295.5,284.5 Z"/></g>
<g><path style="opacity:1" fill="#74926d" d="M 232.5,269.5 C 235.935,270.489 237.268,272.822 236.5,276.5C 235.387,280.726 233.721,284.726 231.5,288.5C 229.978,287.809 228.978,286.642 228.5,285C 231.958,280.427 233.292,275.26 232.5,269.5 Z"/></g>
<g><path style="opacity:1" fill="#afdea5" d="M 224.5,277.5 C 222.001,280.169 219.668,283.002 217.5,286C 216.251,286.74 215.251,286.573 214.5,285.5C 217.442,283.221 219.109,280.221 219.5,276.5C 221.415,276.216 223.081,276.549 224.5,277.5 Z"/></g>
<g><path style="opacity:1" fill="#060805" d="M 291.5,287.5 C 293.167,287.5 294.833,287.5 296.5,287.5C 299.609,287.264 302.609,287.597 305.5,288.5C 305.5,288.833 305.5,289.167 305.5,289.5C 305.773,291.451 305.107,292.951 303.5,294C 297.843,294.499 292.176,294.666 286.5,294.5C 286.5,298.833 286.5,303.167 286.5,307.5C 287.959,307.433 289.292,307.766 290.5,308.5C 292.389,309.604 294.055,310.937 295.5,312.5C 297.999,321.669 294.665,327.503 285.5,330C 282.183,330.498 278.85,330.665 275.5,330.5C 269.396,328.916 266.729,324.916 267.5,318.5C 267.883,312.776 270.883,309.109 276.5,307.5C 277.791,307.737 278.791,307.404 279.5,306.5C 280.482,303.038 280.815,299.371 280.5,295.5C 275.968,295.182 271.634,295.515 267.5,296.5C 264.167,296.5 260.833,296.5 257.5,296.5C 256.833,296.5 256.5,296.167 256.5,295.5C 255.832,290.839 257.832,288.839 262.5,289.5C 264.833,289.5 267.167,289.5 269.5,289.5C 277.02,289.283 284.354,288.616 291.5,287.5 Z"/></g>
<g><path style="opacity:1" fill="#75946f" d="M 258.5,284.5 C 261.297,284.967 262.631,286.633 262.5,289.5C 257.832,288.839 255.832,290.839 256.5,295.5C 255.566,294.432 255.232,293.099 255.5,291.5C 253.5,291.5 251.5,291.5 249.5,291.5C 249.665,295.182 249.499,298.848 249,302.5C 248.005,303.066 247.172,303.733 246.5,304.5C 245.317,303.496 243.984,302.662 242.5,302C 243.931,301.535 245.097,300.701 246,299.5C 246.498,296.183 246.665,292.85 246.5,289.5C 249.85,289.665 253.183,289.498 256.5,289C 258.107,287.951 258.773,286.451 258.5,284.5 Z"/></g>
<g><path style="opacity:1" fill="#75946e" d="M 209.5,291.5 C 206.703,293.795 204.036,296.295 201.5,299C 198.522,299.833 196.189,299 194.5,296.5C 195.873,296.657 197.207,296.49 198.5,296C 201.016,293.317 203.683,290.817 206.5,288.5C 207.855,289.188 208.855,290.188 209.5,291.5 Z"/></g>
<g><path style="opacity:1" fill="#72906b" d="M 305.5,289.5 C 309.675,290.711 310.342,292.878 307.5,296C 301.843,296.499 296.176,296.666 290.5,296.5C 290.5,300.5 290.5,304.5 290.5,308.5C 289.292,307.766 287.959,307.433 286.5,307.5C 286.5,303.167 286.5,298.833 286.5,294.5C 292.176,294.666 297.843,294.499 303.5,294C 305.107,292.951 305.773,291.451 305.5,289.5 Z"/></g>
<g><path style="opacity:1" fill="#789871" d="M 227.5,294.5 C 226.127,294.343 224.793,294.51 223.5,295C 221.415,299.461 218.081,301.795 213.5,302C 212.429,301.148 211.429,300.315 210.5,299.5C 211.873,299.657 213.207,299.49 214.5,299C 217.048,296.115 219.882,293.615 223,291.5C 224.666,292.348 226.166,293.348 227.5,294.5 Z"/></g>
<g><path style="opacity:1" fill="#6a8664" d="M 239.5,267.5 C 239.5,278.167 239.5,288.833 239.5,299.5C 237.708,299.634 236.042,299.301 234.5,298.5C 236.075,296.886 236.741,294.886 236.5,292.5C 237.117,292.611 237.617,292.944 238,293.5C 238.17,284.657 238.67,275.99 239.5,267.5 Z"/></g>
<g><path style="opacity:1" fill="#7d9f76" d="M 257.5,296.5 C 260.833,296.5 264.167,296.5 267.5,296.5C 271.182,296.335 274.848,296.501 278.5,297C 279.451,300.057 279.784,303.223 279.5,306.5C 278.791,307.404 277.791,307.737 276.5,307.5C 278.242,304.855 278.909,301.855 278.5,298.5C 272.158,298.666 265.825,298.5 259.5,298C 258.584,297.722 257.918,297.222 257.5,296.5 Z"/></g>
<g><path style="opacity:1" fill="#313e2e" d="M 267.5,296.5 C 271.634,295.515 275.968,295.182 280.5,295.5C 280.815,299.371 280.482,303.038 279.5,306.5C 279.784,303.223 279.451,300.057 278.5,297C 274.848,296.501 271.182,296.335 267.5,296.5 Z"/></g>
<g><path style="opacity:1" fill="#0a0d09" d="M 246.5,268.5 C 246.5,273.167 246.5,277.833 246.5,282.5C 249.833,282.5 253.167,282.5 256.5,282.5C 257.5,282.833 258.167,283.5 258.5,284.5C 258.773,286.451 258.107,287.951 256.5,289C 253.183,289.498 249.85,289.665 246.5,289.5C 246.665,292.85 246.498,296.183 246,299.5C 245.097,300.701 243.931,301.535 242.5,302C 243.984,302.662 245.317,303.496 246.5,304.5C 247.579,310.449 247.746,316.449 247,322.5C 245.89,324.037 244.39,324.703 242.5,324.5C 241.5,324.167 240.833,323.5 240.5,322.5C 240.5,317.833 240.5,313.167 240.5,308.5C 229.711,309.612 219.044,311.279 208.5,313.5C 203.642,311.965 203.309,309.799 207.5,307C 218.531,305.218 229.531,303.218 240.5,301C 239.944,300.617 239.611,300.117 239.5,299.5C 239.5,288.833 239.5,278.167 239.5,267.5C 240.274,266.853 241.274,266.52 242.5,266.5C 244.355,266.34 245.688,267.007 246.5,268.5 Z"/></g>
<g><path style="opacity:1" fill="#6b8764" d="M 240.5,322.5 C 239.518,319.038 239.185,315.371 239.5,311.5C 229.919,312.226 220.419,313.559 211,315.5C 209.699,315.361 208.866,314.695 208.5,313.5C 219.044,311.279 229.711,309.612 240.5,308.5C 240.5,313.167 240.5,317.833 240.5,322.5 Z"/></g>
<g><path style="opacity:1" fill="#7d9d75" d="M 246.5,304.5 C 247.794,305.29 248.961,306.29 250,307.5C 250.667,313.5 250.667,319.5 250,325.5C 247.215,326.907 244.715,326.574 242.5,324.5C 244.39,324.703 245.89,324.037 247,322.5C 247.746,316.449 247.579,310.449 246.5,304.5 Z"/></g>
<g><path style="opacity:1" fill="#6f8d69" d="M 287.5,315.5 C 281.463,314.877 278.129,317.543 277.5,323.5C 275.11,323.315 274.11,321.982 274.5,319.5C 275.227,315.119 277.894,313.119 282.5,313.5C 283.833,313.667 285.167,313.833 286.5,314C 287.056,314.383 287.389,314.883 287.5,315.5 Z"/></g>
<g><path style="opacity:1" fill="#bbecb0" d="M 287.5,315.5 C 290.134,317.54 290.134,319.707 287.5,322C 284.312,323.316 280.978,323.816 277.5,323.5C 278.129,317.543 281.463,314.877 287.5,315.5 Z"/></g>
<g><path style="opacity:1" fill="#75946e" d="M 295.5,312.5 C 299.791,314.842 301.291,318.509 300,323.5C 293.717,332.537 285.551,334.87 275.5,330.5C 278.85,330.665 282.183,330.498 285.5,330C 294.665,327.503 297.999,321.669 295.5,312.5 Z"/></g>
</svg>
